<svg width="200" height="150" viewBox="0 0 200 150" fill="none" xmlns="http://www.w3.org/2000/svg">
<path d="M98.036 1.70084C99.1634 0.724554 100.837 0.724556 101.964 1.70084L180.52 69.7322C182.62 71.5506 181.334 75 178.556 75H21.4441C18.6665 75 17.3805 71.5506 19.4802 69.7322L98.036 1.70084Z" fill="#15F2C7"/>
<rect x="52.6316" y="60.8696" width="98.2456" height="86.9565" rx="3" fill="#15F2C7"/>
<path d="M93.0877 150H96C97.4737 150 98.6842 147.174 98.8597 143.609L101.754 71.9565H92.9825V54.3478H89.5263V71.9565H80.807L81.3333 82.1304C84.3333 84.1739 87.1404 87.8696 88.8246 91.9565C91.3509 98.1304 93.0877 104.522 93.0877 114.957V150ZM63.1579 145.652V141.304H89.5263V145.652C89.5263 148 88.7368 150 87.7193 150H64.9123C63.9474 150 63.1579 148 63.1579 145.652ZM89.5263 115.217C89.5263 80.4348 63.1579 80.4348 63.1579 115.217H89.5263ZM63.1579 123.913H89.4737V132.609H63.1579V123.913Z" fill="#15F2C7"/>
<g style="mix-blend-mode:lighten">
<path d="M123.018 130.435H128.842C131.789 130.435 134.211 127.609 134.561 124.043L140.351 52.3913H122.807V34.7826H115.895V52.3913H98.4561L99.5088 62.5652C105.509 64.6087 111.123 68.3043 114.491 72.3913C119.544 78.5652 123.018 84.9565 123.018 95.3913V130.435ZM63.1579 126.087V121.739H115.895V126.087C115.895 128.435 114.316 130.435 112.281 130.435H66.6667C64.7368 130.435 63.1579 128.435 63.1579 126.087ZM115.895 95.6522C115.895 60.8695 63.1579 60.8695 63.1579 95.6522H115.895ZM63.1579 104.348H115.789V113.043H63.1579V104.348Z" fill="white"/>
</g>
</svg>
